<svg width="14" height="14" viewBox="0 0 14 14" fill="none" xmlns="http://www.w3.org/2000/svg">
<path d="M4.15586 11.9434H2.05586V5.24961H4.15586V11.9434ZM3.10586 4.33086C2.44961 4.33086 1.88086 3.80586 1.88086 3.10586C1.88086 2.44961 2.40586 1.88086 3.10586 1.88086C3.76211 1.88086 4.33086 2.40586 4.33086 3.10586C4.33086 3.80586 3.76211 4.33086 3.10586 4.33086ZM11.9434 11.9434H9.88711V8.70586C9.88711 7.91836 9.88711 6.95586 8.79336 6.95586C7.69961 6.95586 7.56836 7.78711 7.56836 8.66211V11.9871H5.51211V5.24961H7.43711V6.16836H7.48086C7.74336 5.64336 8.44336 5.07461 9.44961 5.07461C11.5496 5.07461 11.9434 6.47461 11.9434 8.26836V11.9434Z" fill="white"/>
</svg>
