<svg width="14" height="14" viewBox="0 0 14 14" fill="none" xmlns="http://www.w3.org/2000/svg">
<g clip-path="url(#clip0)">
<path d="M13.9998 2.66875C13.4748 2.8875 12.9498 3.0625 12.3373 3.10625C12.9498 2.75625 13.3873 2.1875 13.6061 1.53125C13.0373 1.88125 12.4248 2.1 11.7686 2.23125C11.2436 1.6625 10.4998 1.3125 9.71231 1.3125C8.13731 1.3125 6.82481 2.58125 6.82481 4.2C6.82481 4.41875 6.86856 4.6375 6.9123 4.85625C4.50605 4.725 2.40605 3.5875 0.962305 1.8375C0.699805 2.275 0.568555 2.75625 0.568555 3.28125C0.568555 4.2875 1.09355 5.1625 1.8373 5.6875C1.35605 5.6875 0.918555 5.55625 0.524805 5.3375V5.38125C0.524805 6.78125 1.53105 7.91875 2.84355 8.18125C2.58105 8.225 2.3623 8.26875 2.0998 8.26875C1.9248 8.26875 1.7498 8.26875 1.5748 8.225C1.9248 9.3625 3.01855 10.1937 4.24355 10.2375C3.28105 11.025 2.0123 11.4625 0.656055 11.4625C0.437305 11.4625 0.174805 11.4625 -0.0439453 11.4187C1.26855 12.2063 2.7998 12.6875 4.41856 12.6875C9.71231 12.6875 12.5998 8.3125 12.5998 4.50625C12.5998 4.375 12.5998 4.24375 12.5998 4.15625C13.1248 3.71875 13.6061 3.2375 13.9998 2.66875Z" fill="white"/>
</g>
<defs>
<clipPath id="clip0">
<rect width="14" height="14" fill="white"/>
</clipPath>
</defs>
</svg>
