<svg width="14" height="14" viewBox="0 0 14 14" fill="none" xmlns="http://www.w3.org/2000/svg">
<path d="M13.5368 1.81936C13.5262 1.77096 13.5029 1.72623 13.4694 1.68973C13.4359 1.65322 13.3933 1.62625 13.346 1.61155C13.1736 1.57734 12.9952 1.59004 12.8293 1.6483C12.8293 1.6483 1.32921 5.7818 0.672522 6.23942C0.530772 6.33786 0.483522 6.39517 0.459897 6.46255C0.346585 6.78849 0.700085 6.93199 0.700085 6.93199L3.66415 7.89799C3.7142 7.90666 3.76559 7.90351 3.81421 7.8888C4.4884 7.46311 10.5981 3.6048 10.9507 3.4753C11.0063 3.45867 11.0474 3.47749 11.0382 3.51599C10.8938 4.0108 5.61759 8.69949 5.58871 8.72792C5.57473 8.7397 5.56381 8.75469 5.55688 8.7716C5.54995 8.78851 5.54721 8.80685 5.5489 8.82505L5.2724 11.7187C5.2724 11.7187 5.15646 12.619 6.05727 11.7187C6.69602 11.0795 7.30896 10.5501 7.61521 10.2929C8.63459 10.9964 9.7314 11.7747 10.2043 12.1815C10.2837 12.2586 10.3779 12.3188 10.4811 12.3587C10.5843 12.3985 10.6945 12.4171 10.805 12.4134C11.2543 12.3964 11.3795 11.9029 11.3795 11.9029C11.3795 11.9029 13.4751 3.46874 13.5455 2.33867C13.5521 2.22799 13.5617 2.15711 13.5626 2.08099C13.5661 1.993 13.5574 1.90496 13.5368 1.81936Z" fill="white"/>
</svg>
