<svg width="1440" height="1082" viewBox="0 0 1440 1082" fill="none" xmlns="http://www.w3.org/2000/svg">
<path fill-rule="evenodd" clip-rule="evenodd" d="M0 87H48C96 87 192 87 288 116C384 144 480 202 576 180C672 159 768 58 864 36C960 15 1056 72 1152 80C1248 87 1344 44 1392 22L1440 0V1082H1392C1344 1082 1248 1082 1152 1082C1056 1082 960 1082 864 1082C768 1082 672 1082 576 1082C480 1082 384 1082 288 1082C192 1082 96 1082 48 1082H0V87Z" fill="url(#paint0_linear)"/>
<defs>
<linearGradient id="paint0_linear" x1="720" y1="151.5" x2="720" y2="1082" gradientUnits="userSpaceOnUse">
<stop offset="0.279698" stop-color="#F8F8F8"/>
<stop offset="1" stop-color="#F7F7F7" stop-opacity="0"/>
</linearGradient>
</defs>
</svg>
