<svg width="16" height="16" viewBox="0 0 16 16" fill="none" xmlns="http://www.w3.org/2000/svg">
<path d="M7.89752 0C4.83477 0 1.66699 2.22964 1.66699 5.96084C1.66699 9.5339 7.43676 15.649 7.68242 15.9077C7.73849 15.9668 7.81623 16 7.89752 16C7.97881 16 8.05655 15.9668 8.11262 15.9077C8.35828 15.649 14.128 9.53419 14.128 5.96084C14.128 2.22964 10.9603 0 7.89752 0ZM7.89752 8.30737C6.75051 8.30737 5.82068 7.37754 5.82068 6.23053C5.82068 5.08352 6.75051 4.15369 7.89752 4.15369C9.04453 4.15369 9.97436 5.08352 9.97436 6.23053C9.97436 7.37754 9.04453 8.30737 7.89752 8.30737Z" fill="white"/>
</svg>
